<svg id="Camada_1" data-name="Camada 1" xmlns="http://www.w3.org/2000/svg" viewBox="0 0 353.24 133.29"><defs><style>.cls-1,.cls-2{fill:#fff;}.cls-2{stroke:#1a1413;stroke-miterlimit:10;}</style></defs><path class="cls-1" d="M61.57,139.82v.06s0,0,0,0Z" transform="translate(-35.11 -75.09)"/><path class="cls-1" d="M71.6,138.49,88.22,119.4a5.64,5.64,0,0,0,.88-1.19,6.12,6.12,0,0,0,.49-2l.61-4.79a1.87,1.87,0,0,1,.28-.9,1.79,1.79,0,0,1,.7-.51l15.51-8c-.13.06-.55-.06-.7-.07l-.84,0c-.53,0-1.06,0-1.6-.06-1.07,0-2.14,0-3.21.07a41.39,41.39,0,0,0-18.23,5.59A36,36,0,0,0,77,111.07a43,43,0,0,0-4.4,4.35,45.3,45.3,0,0,0-7.51,11.72c-.33.75-.64,1.52-.94,2.29a12.51,12.51,0,0,0-.83,2.43Z" transform="translate(-35.11 -75.09)"/><path class="cls-1" d="M103.11,187.19a45.46,45.46,0,1,1,45.46-45.46A45.51,45.51,0,0,1,103.11,187.19Zm0-88.63a43.18,43.18,0,1,0,43.18,43.17A43.22,43.22,0,0,0,103.11,98.56Z" transform="translate(-35.11 -75.09)"/><polygon class="cls-1" points="68.01 0 69.53 22.33 66.49 22.33 68.01 0"/><polygon class="cls-1" points="69.53 110.96 68.01 133.29 66.49 110.96 69.53 110.96"/><path class="cls-2" d="M151,142.83" transform="translate(-35.11 -75.09)"/><polygon class="cls-1" points="23.69 69.27 0 67.75 23.69 66.22 23.69 69.27"/><path class="cls-1" d="M106.26,111.44l19.47,16.17a5.62,5.62,0,0,0,1.21.85,5.93,5.93,0,0,0,2,.44l4.81.51a1.87,1.87,0,0,1,.9.25,1.91,1.91,0,0,1,.53.69l8.32,15.32c-.07-.13,0-.56.05-.71s0-.55,0-.83c0-.53,0-1.07,0-1.6q0-1.6-.15-3.21a41.42,41.42,0,0,0-6-18.1,34.73,34.73,0,0,0-3.64-5,44.07,44.07,0,0,0-4.45-4.3,45.56,45.56,0,0,0-11.9-7.23c-.76-.32-1.53-.61-2.31-.88a12.26,12.26,0,0,0-2.45-.78Z" transform="translate(-35.11 -75.09)"/><path class="cls-1" d="M134.36,146l-17.2,18.55a6.4,6.4,0,0,0-.92,1.17,6,6,0,0,0-.55,2l-.76,4.77a1.93,1.93,0,0,1-.3.89,1.78,1.78,0,0,1-.72.49l-15.75,7.48c.13-.06.55.07.7.09l.83.08c.53.05,1.07.08,1.6.11,1.07,0,2.14.06,3.21,0a40.06,40.06,0,0,0,6.37-.71,40.93,40.93,0,0,0,12-4.31,35.14,35.14,0,0,0,5.21-3.37,43,43,0,0,0,4.54-4.21,45.65,45.65,0,0,0,7.87-11.48c.35-.74.69-1.5,1-2.26a13,13,0,0,0,.91-2.4C139.74,150.53,137.06,148.24,134.36,146Z" transform="translate(-35.11 -75.09)"/><path class="cls-1" d="M100.05,172.62,80.54,156.5a4.49,4.49,0,0,0-3.22-1.29l-4.8-.49a1.88,1.88,0,0,1-.91-.25,1.83,1.83,0,0,1-.53-.69l-8.36-15.29c.07.12,0,.55,0,.7l0,.83c0,.54,0,1.07,0,1.61,0,1.07.06,2.14.16,3.2a40.9,40.9,0,0,0,1.07,6.32,41.33,41.33,0,0,0,5,11.77,36.12,36.12,0,0,0,3.66,5A45.15,45.15,0,0,0,77,172.22a45.68,45.68,0,0,0,11.91,7.2c.77.31,1.54.6,2.32.87a12.94,12.94,0,0,0,2.45.78Q96.85,176.84,100.05,172.62Z" transform="translate(-35.11 -75.09)"/><path class="cls-1" d="M175.39,132.6h4.84v22.26h-4.84v-8.94H163.76v8.94h-4.84V132.6h4.84v9h11.63Z" transform="translate(-35.11 -75.09)"/><path class="cls-1" d="M204.57,143.55c0,7.32-4.95,11.31-11.42,11.31s-11.43-3.86-11.43-11.31,4.95-11.31,11.43-11.31S204.57,136.24,204.57,143.55Zm-4.74,0c0-4.35-2.83-6.37-6.68-6.37s-6.69,1.95-6.69,6.37,2.83,6.37,6.69,6.37S199.83,147.83,199.83,143.55Z" transform="translate(-35.11 -75.09)"/><path class="cls-1" d="M215.6,136.67c-3.75,0-4.58,1.4-4.58,2.48s1.31,1.62,5,2.22c5,.81,10.66,1.55,10.66,6.58,0,5.53-3.68,6.92-10.19,6.92-11,0-11-6.08-11-8.23h5c0,3.36,3,3.88,5.85,3.88,3.66,0,5.18-.84,5.18-2.56,0-1.52-1.52-1.78-5.88-2.42-6.65-1-9.64-2.36-9.64-6.44,0-3.14,2.3-6.82,9.56-6.82Z" transform="translate(-35.11 -75.09)"/><path class="cls-1" d="M215.28,132.28h33.13v4.39H240v18.19h-4.84V136.67H215.28Z" transform="translate(-35.11 -75.09)"/><path class="cls-1" d="M268.41,132.6h4.84v22.26h-4.84v-8.94H256.79v8.94H252V132.6h4.84v9h11.62Z" transform="translate(-35.11 -75.09)"/><path class="cls-1" d="M290.29,132.6h5v12c0,3,0,10.26-10.05,10.26s-10-6.84-10-10.27v-12h4.84V144c0,3.34.15,6.4,5.21,6.4s5-4,5-6.4Z" transform="translate(-35.11 -75.09)"/><path class="cls-1" d="M314.35,132.6h4.84v22.26h-7l-9.75-16h-.56v16h-4.84V132.6h6.54v0H304l9.74,15.94h.57Z" transform="translate(-35.11 -75.09)"/><path class="cls-1" d="M320.92,132.6h21.66V137h-8.41v17.84h-4.84V137h-8.41Z" transform="translate(-35.11 -75.09)"/><path class="cls-1" d="M362.49,132.6V137H349v4.56h13.46v4.38H349v4.51h13.46v4.43h-18.3V132.6Z" transform="translate(-35.11 -75.09)"/><path class="cls-1" d="M380.05,146.31l4.25,8.55h-5.25l-3.6-7.44c-.48,0-.89,0-1.2,0h-5.12v7.41h-4.84V132.6h4.84v0l6,0c2.67,0,8.61,0,8.61,7.44C383.76,143.88,382.06,145.27,380.05,146.31Zm-.77-6.28c0-3.09-2.92-3.09-4.43-3.09h-5.72v6.18h5.65C376.16,143.12,379.27,143.14,379.28,140Z" transform="translate(-35.11 -75.09)"/><path class="cls-1" d="M104.69,151.33l11.36-11.62v-5.27s-11.55,4.47-12.94,5c-1.38-.53-12.93-5-12.93-5v5.27l11.35,11.62-6.06,6.12,7.64-3.61,7.65,3.61Z" transform="translate(-35.11 -75.09)"/><path class="cls-1" d="M251.06,168.37a2.25,2.25,0,0,1-.83-.45l.27-.56a2.06,2.06,0,0,0,.73.42,2.57,2.57,0,0,0,.91.16,1.68,1.68,0,0,0,.93-.21.64.64,0,0,0,.3-.56.53.53,0,0,0-.16-.41,1.17,1.17,0,0,0-.42-.25,6.08,6.08,0,0,0-.69-.19,7,7,0,0,1-.91-.27,1.46,1.46,0,0,1-.59-.42,1.14,1.14,0,0,1-.24-.76,1.19,1.19,0,0,1,.21-.71,1.43,1.43,0,0,1,.63-.52,2.58,2.58,0,0,1,1.06-.19,3.58,3.58,0,0,1,.87.11,2.34,2.34,0,0,1,.73.33l-.23.57a2.69,2.69,0,0,0-.67-.3,2.49,2.49,0,0,0-.7-.11,1.49,1.49,0,0,0-.9.23.64.64,0,0,0-.31.56.54.54,0,0,0,.17.42,1.22,1.22,0,0,0,.43.25c.17.06.39.12.68.19a7,7,0,0,1,.91.27,1.61,1.61,0,0,1,.59.41,1.13,1.13,0,0,1,.24.75,1.26,1.26,0,0,1-.21.71,1.49,1.49,0,0,1-.65.52,2.81,2.81,0,0,1-1.07.19A3.31,3.31,0,0,1,251.06,168.37Z" transform="translate(-35.11 -75.09)"/><path class="cls-1" d="M257.42,168.21a2.45,2.45,0,0,1-.95-.91,2.66,2.66,0,0,1,0-2.6,2.47,2.47,0,0,1,.95-.92,2.82,2.82,0,0,1,1.36-.33,2.75,2.75,0,0,1,1.35.33,2.45,2.45,0,0,1,.95.91,2.51,2.51,0,0,1,.34,1.31,2.47,2.47,0,0,1-.34,1.3,2.38,2.38,0,0,1-.95.91,2.66,2.66,0,0,1-1.35.34A2.72,2.72,0,0,1,257.42,168.21Zm2.35-.55a1.8,1.8,0,0,0,.69-.68,1.93,1.93,0,0,0,.25-1,1.88,1.88,0,0,0-.94-1.67,2,2,0,0,0-1-.25,2,2,0,0,0-1,.25,1.86,1.86,0,0,0-.7.69,1.91,1.91,0,0,0-.25,1,1.93,1.93,0,0,0,.25,1,1.76,1.76,0,0,0,.7.68,1.94,1.94,0,0,0,1,.25A1.92,1.92,0,0,0,259.77,167.66Z" transform="translate(-35.11 -75.09)"/><path class="cls-1" d="M263.93,163.51h.72v4.36h2.69v.62h-3.41Z" transform="translate(-35.11 -75.09)"/><path class="cls-1" d="M270,168a2.26,2.26,0,0,1-.55-1.64v-2.83h.71v2.8c0,1.07.47,1.6,1.4,1.6a1.36,1.36,0,0,0,1.05-.39,1.77,1.77,0,0,0,.36-1.21v-2.8h.69v2.83a2.24,2.24,0,0,1-.55,1.64,2.41,2.41,0,0,1-3.11,0Z" transform="translate(-35.11 -75.09)"/><path class="cls-1" d="M277.43,168.21a2.42,2.42,0,0,1-.94-.91,2.47,2.47,0,0,1-.34-1.3,2.51,2.51,0,0,1,.34-1.31,2.45,2.45,0,0,1,.95-.91,2.75,2.75,0,0,1,1.35-.33,2.87,2.87,0,0,1,1.07.2,2.16,2.16,0,0,1,.82.58l-.46.44a1.87,1.87,0,0,0-1.4-.59,2.13,2.13,0,0,0-1,.25,1.86,1.86,0,0,0-.7.69,1.91,1.91,0,0,0-.25,1,1.93,1.93,0,0,0,.25,1,1.76,1.76,0,0,0,.7.68,2,2,0,0,0,1,.25,1.86,1.86,0,0,0,1.4-.6l.46.45a2.25,2.25,0,0,1-.83.59,2.83,2.83,0,0,1-1.07.2A2.66,2.66,0,0,1,277.43,168.21Zm.43,1.72.15-.35a1,1,0,0,0,.48.12c.27,0,.4-.1.4-.29a.23.23,0,0,0-.1-.2.53.53,0,0,0-.31-.07h-.19l.18-.7h.39l-.11.4a.75.75,0,0,1,.46.19.54.54,0,0,1,.16.41.57.57,0,0,1-.24.47,1,1,0,0,1-.64.17A1.22,1.22,0,0,1,277.86,169.93Z" transform="translate(-35.11 -75.09)"/><path class="cls-1" d="M283.91,168.21a2.38,2.38,0,0,1-1-.91,2.59,2.59,0,0,1,0-2.6,2.4,2.4,0,0,1,1-.92,2.75,2.75,0,0,1,1.35-.33,2.82,2.82,0,0,1,1.36.33,2.42,2.42,0,0,1,.94.91,2.52,2.52,0,0,1,.35,1.31,2.48,2.48,0,0,1-.35,1.3,2.35,2.35,0,0,1-.94.91,2.72,2.72,0,0,1-1.36.34A2.66,2.66,0,0,1,283.91,168.21Zm2.34-.55a1.8,1.8,0,0,0,.69-.68,1.93,1.93,0,0,0,.25-1,1.88,1.88,0,0,0-.94-1.67,2,2,0,0,0-1-.25,2.08,2.08,0,0,0-1,.25,1.93,1.93,0,0,0-.7.69,2,2,0,0,0-.25,1,2,2,0,0,0,.25,1,1.83,1.83,0,0,0,.7.68,2,2,0,0,0,1,.25A1.92,1.92,0,0,0,286.25,167.66Zm-.78-4.65a2,2,0,0,1-.31-.22,1,1,0,0,0-.19-.14.3.3,0,0,0-.15-.05.32.32,0,0,0-.26.12.53.53,0,0,0-.11.32h-.38a1.1,1.1,0,0,1,.2-.63.67.67,0,0,1,.8-.16,1.61,1.61,0,0,1,.3.22l.19.14a.3.3,0,0,0,.15,0,.35.35,0,0,0,.26-.11.51.51,0,0,0,.11-.32h.38a1.07,1.07,0,0,1-.2.62.63.63,0,0,1-.5.23A.54.54,0,0,1,285.47,163Z" transform="translate(-35.11 -75.09)"/><path class="cls-1" d="M294,167.87v.62h-3.61v-5h3.51v.62h-2.8v1.53h2.5v.6h-2.5v1.61Z" transform="translate(-35.11 -75.09)"/><path class="cls-1" d="M297,168.37a2.12,2.12,0,0,1-.82-.45l.26-.56a2.06,2.06,0,0,0,.73.42,2.57,2.57,0,0,0,.91.16,1.66,1.66,0,0,0,.93-.21.64.64,0,0,0,.3-.56.53.53,0,0,0-.16-.41,1.17,1.17,0,0,0-.42-.25,6.08,6.08,0,0,0-.69-.19,7,7,0,0,1-.91-.27,1.53,1.53,0,0,1-.59-.42,1.14,1.14,0,0,1-.24-.76,1.26,1.26,0,0,1,.21-.71,1.43,1.43,0,0,1,.63-.52,2.58,2.58,0,0,1,1.06-.19,3.58,3.58,0,0,1,.87.11,2.52,2.52,0,0,1,.74.33l-.24.57a2.69,2.69,0,0,0-.67-.3,2.49,2.49,0,0,0-.7-.11,1.49,1.49,0,0,0-.9.23.64.64,0,0,0-.31.56.54.54,0,0,0,.17.42,1.22,1.22,0,0,0,.43.25c.17.06.39.12.68.19a7,7,0,0,1,.91.27,1.61,1.61,0,0,1,.59.41,1.13,1.13,0,0,1,.24.75,1.26,1.26,0,0,1-.21.71,1.44,1.44,0,0,1-.65.52,2.81,2.81,0,0,1-1.07.19A3.31,3.31,0,0,1,297,168.37Z" transform="translate(-35.11 -75.09)"/><path class="cls-1" d="M309.41,167.87v.62h-3.62v-5h3.52v.62H306.5v1.53H309v.6h-2.5v1.61Z" transform="translate(-35.11 -75.09)"/><path class="cls-1" d="M316.6,168.49v-3.63l-1.81,3h-.32l-1.8-3v3.61H312v-5h.59l2.08,3.5,2.05-3.5h.58v5Z" transform="translate(-35.11 -75.09)"/><path class="cls-1" d="M323.54,163.51h2.1a3,3,0,0,1,1.4.31,2.25,2.25,0,0,1,.95.88,2.66,2.66,0,0,1,0,2.6,2.31,2.31,0,0,1-.95.88,3.1,3.1,0,0,1-1.4.31h-2.1Zm2.06,4.36a2.24,2.24,0,0,0,1.06-.24,1.6,1.6,0,0,0,.71-.65,1.88,1.88,0,0,0,.25-1,1.86,1.86,0,0,0-.25-1,1.68,1.68,0,0,0-.71-.66,2.36,2.36,0,0,0-1.06-.23h-1.35v3.74Z" transform="translate(-35.11 -75.09)"/><path class="cls-1" d="M334,167.24H331.3l-.55,1.25H330l2.25-5H333l2.26,5h-.74Zm-.25-.57-1.08-2.44-1.07,2.44Z" transform="translate(-35.11 -75.09)"/><path class="cls-1" d="M338.15,164.13h-1.71v-.62h4.12v.62h-1.71v4.36h-.7Z" transform="translate(-35.11 -75.09)"/><path class="cls-1" d="M345.68,167.24H343l-.55,1.25h-.74l2.26-5h.71l2.26,5h-.75Zm-.25-.57-1.07-2.44-1.07,2.44Z" transform="translate(-35.11 -75.09)"/><path class="cls-1" d="M353.36,168.21a2.35,2.35,0,0,1-.94-.91,2.47,2.47,0,0,1-.34-1.3,2.51,2.51,0,0,1,.34-1.31,2.42,2.42,0,0,1,.94-.91,2.94,2.94,0,0,1,2.42-.13,2.12,2.12,0,0,1,.83.58l-.46.44a1.89,1.89,0,0,0-1.41-.59,2.09,2.09,0,0,0-1,.25,1.86,1.86,0,0,0-.7.69,1.91,1.91,0,0,0-.25,1,1.93,1.93,0,0,0,.25,1,1.76,1.76,0,0,0,.7.68,2,2,0,0,0,1,.25,1.87,1.87,0,0,0,1.41-.6l.46.45a2.33,2.33,0,0,1-.83.59,2.87,2.87,0,0,1-1.07.2A2.66,2.66,0,0,1,353.36,168.21Z" transform="translate(-35.11 -75.09)"/><path class="cls-1" d="M362.67,167.87v.62h-3.62v-5h3.52v.62h-2.81v1.53h2.5v.6h-2.5v1.61Z" transform="translate(-35.11 -75.09)"/><path class="cls-1" d="M369.53,163.51v5h-.59l-3-3.72v3.72h-.71v-5h.59l3,3.71v-3.71Z" transform="translate(-35.11 -75.09)"/><path class="cls-1" d="M373.43,164.13h-1.7v-.62h4.12v.62h-1.71v4.36h-.71Z" transform="translate(-35.11 -75.09)"/><path class="cls-1" d="M381.66,167.87v.62h-3.61v-5h3.51v.62h-2.8v1.53h2.5v.6h-2.5v1.61Z" transform="translate(-35.11 -75.09)"/><path class="cls-1" d="M387.57,168.49,386.49,167H385v1.52h-.71v-5h1.94a2.28,2.28,0,0,1,1.52.46,1.57,1.57,0,0,1,.56,1.27,1.68,1.68,0,0,1-.29,1,1.65,1.65,0,0,1-.81.59l1.18,1.67Zm-.38-2.41a1,1,0,0,0,.36-.84,1,1,0,0,0-.36-.82,1.56,1.56,0,0,0-1-.29H385v2.24h1.21A1.62,1.62,0,0,0,387.19,166.08Z" transform="translate(-35.11 -75.09)"/></svg>